<?xml version="1.0" encoding="UTF-8" standalone="no"?>
<svg
   xmlns:dc="http://purl.org/dc/elements/1.1/"
   xmlns:cc="http://creativecommons.org/ns#"
   xmlns:rdf="http://www.w3.org/1999/02/22-rdf-syntax-ns#"
   xmlns:svg="http://www.w3.org/2000/svg"
   xmlns="http://www.w3.org/2000/svg"
   xmlns:sodipodi="http://sodipodi.sourceforge.net/DTD/sodipodi-0.dtd"
   xmlns:inkscape="http://www.inkscape.org/namespaces/inkscape"
   version="1.1"
   width="147"
   height="156"
   viewBox="533.78 198.72 147 156"
   xml:space="preserve"
   id="svg47"
   sodipodi:docname="built.svg"><metadata
   id="metadata51"><rdf:RDF><cc:Work
       rdf:about=""><dc:format>image/svg+xml</dc:format><dc:type
         rdf:resource="http://purl.org/dc/dcmitype/StillImage" /></cc:Work></rdf:RDF></metadata><sodipodi:namedview
   pagecolor="#ffffff"
   bordercolor="#666666"
   borderopacity="1"
   objecttolerance="10"
   gridtolerance="10"
   guidetolerance="10"
   inkscape:pageopacity="0"
   inkscape:pageshadow="2"
   inkscape:window-width="640"
   inkscape:window-height="480"
   id="namedview49"
   fit-margin-top="8"
   fit-margin-left="8"
   fit-margin-right="8"
   fit-margin-bottom="8" />
<desc
   id="desc2">Created with Fabric.js 5.3.0</desc>
<defs
   id="defs4">
</defs>
<rect
   width="146.8"
   height="155.8"
   fill="#ffffff"
   x="533.97998"
   y="198.92"
   id="rect6" /><g
   transform="matrix(0.68,0,0,0.68,606.38,276.42)"
   id="main_icon">
<g
   id="g44">
		<g
   transform="matrix(0.05,0,0,-0.05,-1.41,-80.46)"
   id="g10">
<path
   style="opacity:1;fill:#1d017a;fill-rule:nonzero;stroke:none;stroke-width:1;stroke-linecap:butt;stroke-linejoin:miter;stroke-miterlimit:4;stroke-dasharray:none;stroke-dashoffset:0"
   transform="translate(-5130.9,-6344.14)"
   d="m 4965,6804 c -16,-2 -82,-11 -145,-20 -356,-49 -685,-189 -990,-423 -114,-87 -249,-218 -266,-258 -32,-75 -7,-152 65,-200 40,-27 98,-30 144,-8 18,8 75,52 127,97 231,198 359,282 557,362 233,95 416,130 678,130 290,-1 499,-47 741,-163 181,-87 307,-174 489,-336 111,-99 121,-105 181,-105 116,0 202,130 150,228 -17,31 -121,134 -218,215 -277,230 -623,389 -992,458 -107,20 -441,35 -521,23 z"
   stroke-linecap="round"
   id="path8" />
</g>
		<g
   transform="matrix(0.05,0,0,-0.05,-0.74,-59.36)"
   id="g14">
<path
   style="opacity:1;fill:#1d017a;fill-rule:nonzero;stroke:none;stroke-width:1;stroke-linecap:butt;stroke-linejoin:miter;stroke-miterlimit:4;stroke-dasharray:none;stroke-dashoffset:0"
   transform="translate(-5135.22,-5918.59)"
   d="m 4894,6285 c -277,-42 -508,-137 -719,-294 -103,-77 -196,-164 -221,-207 -60,-102 1,-231 114,-242 63,-6 90,9 220,117 175,147 325,225 528,276 309,79 613,46 895,-95 74,-38 210,-135 338,-241 62,-52 66,-54 126,-54 52,0 67,4 98,28 103,78 87,181 -47,302 -219,199 -483,336 -766,400 -103,23 -440,29 -566,10 z"
   stroke-linecap="round"
   id="path12" />
</g>
		<g
   transform="matrix(0.05,0,0,-0.05,-0.56,-37.58)"
   id="g18">
<path
   style="opacity:1;fill:#1d017a;fill-rule:nonzero;stroke:none;stroke-width:1;stroke-linecap:butt;stroke-linejoin:miter;stroke-miterlimit:4;stroke-dasharray:none;stroke-dashoffset:0"
   transform="translate(-5130.33,-5478.76)"
   d="m 4965,5779 c -217,-33 -390,-108 -547,-237 -136,-110 -169,-166 -147,-247 14,-50 76,-112 123,-121 53,-9 97,10 214,98 173,129 280,171 468,184 157,11 322,-25 454,-99 30,-17 89,-59 132,-94 102,-82 131,-96 184,-90 131,14 192,145 118,257 -47,71 -205,187 -346,255 -152,73 -255,97 -438,100 -85,2 -182,0 -215,-6 z"
   stroke-linecap="round"
   id="path16" />
</g>
		<g
   transform="matrix(0.05,0,0,-0.05,-62.7,6.5)"
   id="g22">
<path
   style="opacity:1;fill:#1d017a;fill-rule:nonzero;stroke:none;stroke-width:1;stroke-linecap:butt;stroke-linejoin:miter;stroke-miterlimit:4;stroke-dasharray:none;stroke-dashoffset:0"
   transform="translate(-3865.88,-4565.11)"
   d="m 3292,5663 c -43,-21 -79,-65 -92,-112 -7,-26 -9,-384 -8,-1067 3,-1163 -5,-1069 86,-992 89,75 480,427 682,613 108,99 282,256 388,349 106,93 192,173 192,177 0,9 -84,91 -320,309 -85,79 -247,230 -360,335 -289,270 -412,380 -437,394 -31,16 -92,13 -131,-6 z"
   stroke-linecap="round"
   id="path20" />
</g>
		<g
   transform="matrix(0.05,0,0,-0.05,61.95,6.4)"
   id="g26">
<path
   style="opacity:1;fill:#1d017a;fill-rule:nonzero;stroke:none;stroke-width:1;stroke-linecap:butt;stroke-linejoin:miter;stroke-miterlimit:4;stroke-dasharray:none;stroke-dashoffset:0"
   transform="translate(-6392.5,-4567.13)"
   d="m 6759,5604 c -46,-43 -226,-211 -399,-374 -174,-162 -388,-362 -478,-443 -89,-82 -162,-153 -162,-157 0,-9 182,-176 520,-475 124,-110 337,-301 473,-425 324,-293 315,-286 336,-273 15,9 16,95 16,1049 0,999 -1,1040 -19,1077 -29,59 -77,90 -145,95 l -58,4 z"
   stroke-linecap="round"
   id="path24" />
</g>
		<g
   transform="matrix(0.05,0,0,-0.05,0.13,-16.81)"
   id="g30">
<path
   style="opacity:1;fill:#1d017a;fill-rule:nonzero;stroke:none;stroke-width:1;stroke-linecap:butt;stroke-linejoin:miter;stroke-miterlimit:4;stroke-dasharray:none;stroke-dashoffset:0"
   transform="translate(-5134.79,-5059.99)"
   d="m 4960,5259 c -193,-50 -310,-152 -310,-271 0,-52 27,-100 72,-129 53,-33 116,-22 216,36 76,44 90,49 162,53 96,5 153,-11 242,-69 58,-38 67,-40 120,-37 124,9 193,120 139,227 -39,76 -170,163 -298,196 -82,21 -249,19 -343,-6 z"
   stroke-linecap="round"
   id="path28" />
</g>
		<g
   transform="matrix(0.05,0,0,-0.05,0.14,21)"
   id="g34">
<path
   style="opacity:1;fill:#1d017a;fill-rule:nonzero;stroke:none;stroke-width:1;stroke-linecap:butt;stroke-linejoin:miter;stroke-miterlimit:4;stroke-dasharray:none;stroke-dashoffset:0"
   transform="translate(-5132.17,-4289.82)"
   d="m 5060,4647 c -121,-28 -229,-116 -271,-225 -34,-87 -33,-218 4,-293 35,-72 108,-146 177,-178 48,-23 68,-26 160,-26 99,0 110,2 172,33 131,64 198,174 198,322 0,128 -48,227 -142,296 -91,67 -199,93 -298,71 z"
   stroke-linecap="round"
   id="path32" />
</g>
		<g
   transform="matrix(0.05,0,0,-0.05,-1.72,48.06)"
   id="g38">
<path
   style="opacity:1;fill:#1d017a;fill-rule:nonzero;stroke:none;stroke-width:1;stroke-linecap:butt;stroke-linejoin:miter;stroke-miterlimit:4;stroke-dasharray:none;stroke-dashoffset:0"
   transform="translate(-5129.96,-3737.04)"
   d="m 4265,4054 c -518,-468 -602,-543 -766,-687 -93,-82 -167,-153 -163,-158 7,-12 3581,-12 3588,0 3,5 -83,87 -191,182 -242,215 -373,331 -634,569 -308,279 -357,322 -362,313 -2,-4 -8,-41 -11,-81 -15,-149 -65,-260 -166,-362 -142,-143 -334,-198 -553,-156 -256,49 -466,282 -467,517 0,112 2,113 -275,-137 z"
   stroke-linecap="round"
   id="path36" />
</g>
		<g
   transform="matrix(0.05,0,0,-0.05,-0.57,98.66)"
   id="g42">
<path
   style="opacity:1;fill:#1d017a;fill-rule:nonzero;stroke:none;stroke-width:1;stroke-linecap:butt;stroke-linejoin:miter;stroke-miterlimit:4;stroke-dasharray:none;stroke-dashoffset:0"
   transform="translate(-5130.82,-2722.6)"
   d="m 4851,2810 c -291,-12 -551,-39 -594,-62 -25,-13 -18,-50 13,-65 119,-56 1221,-72 1599,-22 140,18 183,47 127,84 -68,45 -726,82 -1145,65 z"
   stroke-linecap="round"
   id="path40" />
</g>
</g>
</g></svg>
